<?xml version="1.0" encoding="iso-8859-1"?>
<!-- Generator: Adobe Illustrator 19.0.0, SVG Export Plug-In . SVG Version: 6.00 Build 0)  -->
<svg version="1.1" id="Layer_1" xmlns="http://www.w3.org/2000/svg" xmlns:xlink="http://www.w3.org/1999/xlink" x="0px" y="0px"
	 viewBox="0 0 16 16" style="enable-background:new 0 0 16 16;" xml:space="preserve">
<path id="XMLID_19_" style="fill:#787878;" d="M14.412,8.271c-0.568-0.386-1.271-0.509-1.946-0.426
	c0.053-0.567,0.05-1.147-0.101-1.701c-0.397-1.605-1.74-2.951-3.362-3.302h0c0,0,0,0,0,0C8.979,2.837,8.954,2.832,8.93,2.827
	C8.917,2.826,8.903,2.825,8.89,2.824C8.021,2.69,7.305,2.776,7.032,2.821c-0.006,0-0.012,0.001-0.017,0.001l0,0
	C6.984,2.827,6.953,2.834,6.922,2.84C6.916,2.842,6.913,2.842,6.913,2.842h0C5.392,3.169,4.118,4.374,3.632,5.845
	C2.065,6.032,0.662,7.284,0.41,8.857c-0.043,0.68-0.097,1.399,0.177,2.041c0.391,1.017,1.252,1.842,2.287,2.184
	c0.53,0.196,1.104,0.162,1.659,0.163c2.81,0,5.62-0.001,8.43,0.001c1.38,0.055,2.635-1.184,2.653-2.554
	C15.693,9.744,15.208,8.786,14.412,8.271z M14.556,11.199c-0.271,0.671-0.967,1.144-1.695,1.125c-2.95-0.003-5.899,0.001-8.85-0.002
	c-1.398,0-2.655-1.203-2.718-2.6c-0.103-1.294,0.839-2.562,2.1-2.855c0.683-0.179,1.412-0.043,2.032,0.278
	C5.957,7.429,6.509,7.672,7.03,7.975c0.156-0.28,0.306-0.564,0.456-0.848c-0.924-0.445-1.798-1.05-2.825-1.23
	C5.288,4.134,7.491,3.202,9.213,3.9c1.526,0.544,2.537,2.207,2.305,3.814c-0.086,0.693-0.392,1.348-0.838,1.882
	c0.242,0.206,0.483,0.414,0.721,0.624c0.333-0.381,0.583-0.825,0.781-1.29c0.623-0.27,1.415-0.175,1.912,0.307
	C14.637,9.711,14.83,10.531,14.556,11.199z"/>
</svg>
